<svg xmlns="http://www.w3.org/2000/svg" width="109.25" height="58.899"><path d="M109.25 12.468c0 3.497-2.855 6.342-6.365 6.342-3.509 0-6.364-2.845-6.364-6.342 0-1.316.405-2.539 1.096-3.553l4.089-8.186a1.316 1.316 0 011.766-.591c.146.073.265.175.37.287.029.031.053.063.079.097.075.097.134.202.179.315.012.03.028.056.038.086.04.127.065.258.065.393 0 .012-.008.024-.008.036a1.295 1.295 0 01-.13.548l-2.152 4.309c.318-.049.641-.082.972-.082 3.51-.002 6.365 2.844 6.365 6.341zm-6.365 3.715c2.056 0 3.729-1.667 3.729-3.715s-1.672-3.715-3.729-3.715c-2.056 0-3.728 1.667-3.728 3.715s1.673 3.715 3.728 3.715zM83.006 58.899H78.7c-6.768 0-12.263-5.484-12.263-12.225V27.111c0-6.734 5.495-12.22 12.263-12.22h4.306c6.768 0 12.263 5.486 12.263 12.22v19.563c0 6.741-5.495 12.225-12.263 12.225zm4.577-32.554c0-2.51-2.054-4.561-4.577-4.561H78.7c-2.522 0-4.576 2.05-4.576 4.561v21.094c0 2.514 2.054 4.563 4.576 4.563h4.306c2.522 0 4.577-2.05 4.577-4.563V26.345zM59.215 58.899h-5.122c-.469 0-.863-.324-1.005-.804l-5.843-22.049c-.045-.21-.195-.268-.336-.268-.142 0-.292.058-.334.268l-5.668 22.049c-.142.479-.539.804-1.008.804h-5.296a.668.668 0 01-.674-.666v-.138l9.232-42.337c.069-.469.472-.867.938-.867h5.621c.469 0 .867.397.939.867l9.231 42.337v.138a.671.671 0 01-.675.666zm-34.737 0h-5.413c-.535 0-.942-.27-1.141-.738L7.712 35.881c-.054-.137-.193-.203-.325-.203-.202 0-.337.135-.337.333v22.018c0 .468-.409.87-.803.87H.804c-.464 0-.804-.402-.804-.87V15.952c0-.594.202-1.125.876-1.125h5.882c.536 0 1.005.33 1.14.792l10.194 21.627c.072.127.199.264.337.264.196 0 .331-.197.331-.336V15.691c0-.468.4-.864.807-.864h5.446c.472 0 .8.396.8.864v42.207c0 .731-.668 1.001-1.335 1.001z" fill-rule="evenodd" clip-rule="evenodd" fill="#fff"/></svg>